<?xml version="1.0" standalone="no"?>
<!DOCTYPE svg PUBLIC "-//W3C//DTD SVG 20010904//EN"
 "http://www.w3.org/TR/2001/REC-SVG-20010904/DTD/svg10.dtd">
<svg version="1.0" xmlns="http://www.w3.org/2000/svg"
 width="872.000000pt" height="872.000000pt" viewBox="0 0 872.000000 872.000000"
 preserveAspectRatio="xMidYMid meet">
<metadata>
Created by potrace 1.11, written by Peter Selinger 2001-2013
</metadata>
<g transform="translate(0.000000,872.000000) scale(0.100000,-0.100000)"
fill="#000000" stroke="none">
<path d="M2915 8660 c-119 -51 -301 -126 -457 -190 -71 -29 -128 -58 -128 -64
0 -25 90 -221 100 -218 6 1 30 11 53 21 23 10 69 30 102 44 l60 26 22 -47 c40
-87 235 -557 236 -569 0 -7 5 -13 10 -13 6 0 8 -2 5 -5 -3 -3 9 -40 28 -82 25
-58 30 -80 22 -90 -6 -8 -13 -11 -16 -9 -2 3 -31 -8 -63 -25 -32 -16 -60 -28
-61 -27 -2 2 -17 -7 -35 -20 -17 -12 -34 -22 -37 -22 -7 0 -250 -141 -256
-149 -3 -4 -21 -17 -40 -28 -19 -12 -67 -46 -107 -75 -39 -29 -81 -60 -93 -68
-12 -8 -32 -24 -45 -35 -13 -11 -44 -38 -70 -60 -26 -22 -63 -54 -83 -71 l-35
-31 -214 214 c-117 118 -213 218 -213 223 0 5 10 17 23 27 12 11 50 48 84 84
l63 64 -89 88 -88 88 -261 -262 c-144 -144 -262 -265 -262 -269 0 -4 39 -46
86 -92 l86 -85 86 89 87 88 217 -217 217 -218 -30 -35 c-17 -19 -43 -48 -57
-65 -15 -16 -43 -50 -62 -75 -19 -25 -40 -49 -47 -53 -7 -4 -13 -12 -13 -18 0
-5 -8 -19 -18 -29 -10 -11 -45 -59 -77 -107 -33 -49 -63 -90 -67 -91 -5 -2 -6
-8 -2 -13 3 -5 1 -9 -4 -9 -5 0 -15 -13 -22 -30 -7 -16 -16 -30 -20 -30 -4 0
-10 -8 -13 -17 -3 -10 -24 -49 -46 -88 -22 -38 -47 -84 -55 -102 -16 -35 -26
-35 -111 3 -22 10 -42 18 -45 19 -6 1 -224 91 -255 105 -11 5 -60 26 -110 46
-49 20 -103 42 -120 50 -16 7 -57 24 -90 36 -100 38 -101 40 -82 81 9 19 17
38 17 43 0 4 11 30 24 58 40 86 40 90 3 104 -17 8 -41 18 -52 23 -61 26 -138
59 -140 59 -3 0 -86 -194 -90 -210 0 -3 -11 -27 -23 -54 -12 -27 -22 -53 -22
-57 0 -5 -4 -17 -10 -27 -5 -9 -30 -66 -55 -127 -25 -60 -49 -119 -54 -130
-20 -45 -33 -86 -30 -89 2 -2 44 -20 94 -40 50 -20 98 -41 109 -47 18 -10 35
1 36 22 0 4 10 28 22 55 12 27 23 56 24 64 4 19 27 63 38 72 8 6 61 -14 173
-63 24 -11 45 -19 47 -19 2 0 26 -10 53 -22 26 -12 50 -22 53 -23 14 -5 48
-19 75 -30 17 -8 54 -23 84 -35 30 -11 74 -30 97 -41 24 -10 46 -19 50 -19 4
0 32 -12 62 -26 31 -15 60 -27 66 -28 37 -5 39 -22 13 -86 -26 -64 -30 -75
-32 -82 -2 -5 -4 -10 -5 -13 -1 -3 -3 -8 -4 -12 -1 -5 -10 -33 -21 -63 -10
-30 -20 -59 -21 -65 -1 -5 -12 -44 -24 -85 -12 -41 -24 -86 -27 -100 -2 -14
-9 -45 -14 -70 -6 -25 -12 -54 -15 -65 -25 -124 -34 -183 -39 -250 -2 -22 -4
-40 -5 -40 -3 0 -7 -43 -15 -155 -4 -58 -11 -107 -15 -110 -7 -4 -591 -5 -611
-1 -3 0 -5 56 -5 124 l1 122 -122 0 c-76 1 -124 -3 -126 -10 -2 -5 -3 -174 -2
-375 l0 -364 123 -1 c76 0 122 3 123 10 1 5 2 62 3 125 l1 115 310 0 310 0 1
-25 c2 -44 15 -194 20 -230 3 -19 7 -53 9 -75 10 -87 14 -115 19 -132 2 -10 7
-35 11 -57 3 -21 7 -42 10 -46 3 -4 7 -23 10 -41 10 -71 87 -345 107 -383 6
-11 11 -23 10 -25 0 -2 -36 -18 -79 -36 -43 -17 -87 -35 -98 -40 -11 -4 -23
-7 -27 -7 -5 1 -8 -3 -8 -10 0 -6 -3 -9 -6 -5 -4 3 -19 0 -35 -9 -16 -8 -32
-15 -36 -16 -5 0 -37 -14 -71 -30 -35 -15 -70 -28 -78 -28 -8 0 -14 -4 -14
-10 0 -5 -9 -10 -20 -10 -22 0 -60 -19 -72 -35 -4 -5 -8 -7 -8 -3 0 6 -52 -14
-170 -64 -14 -6 -29 -12 -35 -14 -5 -2 -19 -6 -31 -9 -18 -6 -24 3 -51 67 -17
40 -37 90 -44 111 -15 42 -20 43 -95 11 -21 -10 -43 -19 -49 -20 -5 -1 -31
-12 -57 -23 -47 -21 -50 -29 -29 -66 3 -5 6 -14 7 -20 1 -5 12 -32 25 -60 12
-27 23 -52 24 -55 4 -13 18 -48 30 -75 7 -16 29 -70 50 -120 20 -49 45 -109
56 -132 10 -24 19 -45 19 -47 0 -2 8 -21 17 -42 9 -22 18 -42 19 -46 1 -5 3
-11 4 -15 1 -5 2 -12 1 -16 -4 -26 49 -11 210 60 l37 16 -23 51 c-24 56 -37
90 -35 94 0 1 -6 15 -15 32 -21 42 -19 57 12 68 74 27 231 94 258 109 17 9 32
17 35 16 3 0 23 6 45 15 22 9 43 16 48 14 4 -1 7 3 7 8 0 6 7 10 15 10 8 0 34
9 58 19 133 61 290 122 298 114 4 -4 35 -63 68 -131 78 -157 218 -391 293
-487 61 -78 88 -115 88 -120 0 -3 10 -16 23 -28 12 -12 39 -42 59 -67 19 -25
45 -56 57 -69 11 -13 21 -26 21 -28 0 -7 -427 -433 -434 -433 -4 0 -45 39 -91
86 l-84 86 -86 -86 c-47 -47 -85 -88 -85 -92 0 -4 118 -124 263 -268 l262
-261 88 88 88 88 -86 86 c-47 47 -84 89 -83 94 3 8 239 249 243 249 1 0 42 41
91 90 48 50 90 90 93 90 3 0 21 -13 39 -29 18 -16 52 -47 76 -68 67 -58 118
-99 203 -161 43 -31 80 -60 81 -64 2 -4 8 -8 13 -8 11 0 72 -42 77 -52 2 -5 7
-8 12 -8 5 0 44 -22 87 -48 43 -27 119 -70 168 -96 50 -26 93 -51 98 -55 4 -4
-18 -68 -49 -142 -30 -74 -89 -217 -130 -318 -42 -101 -79 -191 -84 -200 -4
-9 -20 -46 -35 -83 l-26 -66 -106 44 c-58 24 -109 46 -113 49 -4 3 -13 -2 -20
-10 -7 -8 -10 -15 -7 -15 3 0 -15 -46 -39 -102 -29 -69 -39 -104 -31 -106 7
-2 21 -7 32 -12 64 -28 170 -72 237 -98 42 -17 96 -39 120 -50 23 -11 86 -37
138 -58 52 -21 106 -44 119 -51 14 -6 29 -10 33 -7 9 6 28 46 33 69 2 6 14 35
28 65 41 90 41 89 -38 122 -38 16 -84 35 -102 43 -17 8 -36 15 -42 15 -6 0
-11 2 -11 4 0 4 27 72 40 101 17 36 172 410 174 420 3 11 31 78 46 110 9 18
31 73 35 85 1 3 9 24 19 47 l18 41 56 -19 c31 -11 62 -21 67 -23 6 -2 13 -4
17 -5 4 -1 38 -13 75 -26 37 -14 69 -23 71 -20 3 2 16 -2 31 -9 23 -12 161
-47 201 -52 8 -1 33 -6 55 -12 48 -13 109 -23 210 -37 28 -3 64 -9 80 -11 17
-3 62 -7 100 -10 39 -3 90 -7 115 -8 25 -2 48 -4 51 -5 9 -1 19 -41 11 -41 -9
0 -7 -123 2 -138 4 -7 3 -12 -1 -12 -9 0 -8 -32 0 -75 3 -11 2 -24 -1 -29 -8
-14 -4 -304 4 -317 3 -6 -1 -10 -12 -9 -11 1 -70 2 -131 1 l-113 -1 0 -126 0
-126 27 5 c15 3 36 1 45 -4 12 -7 18 -6 18 1 0 6 5 8 11 5 15 -10 59 -14 59
-6 0 4 15 6 33 3 17 -2 43 -2 57 -2 14 1 32 1 40 1 8 -1 26 -1 40 0 14 0 31 0
38 0 25 -2 39 -2 108 0 38 2 75 -1 82 -5 7 -4 12 -2 12 4 0 6 5 8 11 4 17 -10
53 -11 60 -1 4 6 14 5 23 0 10 -5 30 -7 47 -5 l29 4 0 124 0 124 -124 0 -124
0 1 43 c0 24 -3 49 -7 55 -4 7 -4 12 1 12 9 0 8 124 -2 139 -3 6 -2 11 2 11
10 0 7 75 -3 92 -4 6 -3 9 2 5 10 -6 10 212 1 238 -8 20 10 29 61 31 23 1 48
4 55 7 8 3 20 1 27 -3 8 -5 19 -6 24 -2 6 3 24 7 41 8 16 2 53 5 80 9 28 3 68
9 90 11 22 3 65 10 95 16 30 6 62 13 70 14 8 2 31 6 50 10 19 4 42 8 50 10 8
1 51 12 95 24 44 11 87 23 95 25 8 2 16 4 18 5 1 2 6 3 10 4 26 4 248 82 253
89 17 23 31 3 79 -118 13 -33 34 -84 48 -114 13 -30 25 -60 27 -65 3 -15 43
-107 55 -128 5 -10 10 -27 10 -38 0 -11 5 -20 10 -20 6 0 10 -6 10 -13 0 -12
92 -238 110 -270 15 -25 7 -33 -48 -53 -26 -10 -51 -21 -57 -24 -5 -4 -33 -15
-61 -25 -50 -17 -51 -19 -44 -46 5 -16 12 -34 17 -41 4 -7 8 -15 9 -18 2 -10
55 -140 60 -148 1 -2 10 1 21 6 24 13 53 25 156 67 48 20 100 41 115 47 15 6
29 12 32 13 10 3 56 23 100 43 25 11 65 27 90 37 25 9 59 23 75 30 17 8 47 21
68 29 21 9 36 19 34 23 -8 13 -43 95 -67 156 -12 31 -25 59 -29 61 -3 2 -23
-4 -44 -14 -20 -10 -37 -17 -37 -15 0 2 -28 -9 -62 -25 -70 -33 -98 -37 -98
-15 0 8 -4 23 -9 33 -12 23 -30 65 -81 192 -23 58 -51 124 -61 147 -11 24 -31
73 -45 110 -15 38 -31 72 -35 77 -5 6 -9 16 -9 23 0 7 -11 36 -24 65 -42 95
-59 138 -55 141 2 1 26 13 54 27 27 14 83 44 123 68 41 23 76 42 78 42 7 0
204 130 254 168 25 19 58 43 74 55 51 37 230 188 248 209 10 11 22 18 28 16 6
-2 107 -99 224 -216 l213 -213 -89 -88 -88 -88 73 -74 c41 -41 81 -80 90 -88
15 -12 47 17 280 251 l264 263 -89 89 -89 88 -85 -83 c-46 -46 -87 -86 -89
-88 -2 -2 -104 95 -225 217 -122 121 -217 222 -213 223 4 2 33 33 63 69 30 36
60 70 65 76 18 20 39 48 84 109 25 33 49 63 55 67 6 4 8 8 4 8 -7 0 36 62 72
107 6 7 10 15 10 19 0 3 14 26 30 51 17 24 30 48 30 54 0 5 3 9 8 9 4 0 12 10
18 23 37 77 100 193 107 198 5 3 8 9 7 13 -2 12 53 126 61 126 14 0 164 -62
178 -74 8 -6 15 -10 15 -8 1 2 13 -1 28 -7 42 -16 200 -81 233 -96 17 -7 71
-29 120 -50 50 -20 104 -42 120 -49 17 -8 47 -20 67 -27 24 -8 34 -16 29 -23
-5 -6 -9 -13 -10 -16 0 -8 -12 -39 -39 -105 -44 -108 -43 -105 -24 -111 20 -7
45 -17 92 -37 71 -31 121 -49 124 -46 1 2 13 31 26 64 13 33 31 78 40 100 10
22 62 146 115 275 53 129 99 238 101 242 4 6 -204 98 -223 98 -9 0 -39 -69
-35 -82 1 -5 -2 -8 -8 -8 -5 0 -10 -6 -10 -12 0 -26 -44 -118 -57 -118 -7 0
-35 10 -61 21 -80 36 -105 47 -162 69 -30 12 -71 28 -90 37 -62 27 -92 40
-230 96 -178 73 -244 100 -248 103 -2 1 7 30 19 65 11 35 23 71 25 79 2 8 13
49 25 90 24 87 58 232 64 275 3 17 7 41 10 55 5 24 15 91 20 135 1 11 3 20 5
20 1 0 3 20 5 45 13 195 17 246 20 250 3 4 597 5 615 1 3 0 5 -55 5 -121 0
-66 2 -120 5 -121 3 0 58 -2 123 -2 111 -2 117 -1 118 18 3 58 4 702 1 716 -3
13 -22 15 -125 15 l-122 -1 0 -123 c1 -78 -3 -122 -10 -123 -5 -1 -144 -2
-309 -3 -191 -1 -300 3 -302 9 -1 6 -6 48 -9 95 -10 147 -14 184 -19 210 -2
14 -7 45 -10 70 -3 25 -8 55 -10 67 -3 11 -8 43 -12 70 -9 53 -11 62 -14 66
-2 3 -9 36 -14 67 -2 14 -11 50 -20 81 -9 31 -18 65 -20 75 -3 11 -9 31 -15
47 -6 15 -13 38 -16 50 -4 20 -34 109 -68 199 -7 21 -16 41 -20 44 -9 10 -9
44 1 42 4 -1 21 5 37 12 17 7 32 14 35 15 3 1 16 6 30 12 166 70 493 203 500
203 6 0 10 4 10 8 0 5 6 9 13 9 15 1 80 26 87 33 3 3 22 11 43 17 33 10 38 9
47 -8 6 -10 8 -19 5 -19 -3 0 0 -12 9 -27 8 -16 23 -48 33 -73 43 -100 23 -95
148 -43 61 25 112 47 114 49 3 3 -25 76 -62 164 -6 14 -11 27 -12 30 -1 3 -9
22 -18 44 -9 21 -17 40 -17 43 0 2 -9 23 -19 47 -11 23 -29 67 -41 96 -12 29
-30 73 -41 96 -10 24 -19 46 -19 49 0 3 -8 25 -19 48 -10 23 -21 50 -24 59 -7
19 -15 17 -92 -16 -16 -8 -55 -24 -85 -36 -30 -12 -56 -23 -58 -25 -2 -2 22
-69 51 -135 6 -14 11 -27 12 -30 1 -3 7 -18 14 -34 13 -33 10 -37 -39 -56 -19
-7 -53 -21 -75 -30 -43 -18 -77 -32 -85 -35 -3 -1 -18 -7 -33 -13 -16 -7 -33
-12 -38 -12 -5 0 -9 -5 -9 -12 0 -6 -3 -9 -6 -6 -4 5 -85 -26 -189 -72 -11 -5
-65 -27 -120 -50 -55 -23 -109 -45 -120 -49 -91 -38 -78 -43 -126 49 -18 36
-36 67 -39 70 -4 3 -12 20 -19 38 -8 17 -16 32 -20 32 -3 0 -15 18 -25 40 -10
22 -27 48 -37 59 -11 11 -19 23 -19 26 0 11 -162 234 -211 290 -98 111 -138
159 -136 161 1 2 99 100 217 219 l214 216 86 -86 c47 -47 89 -85 92 -85 10 0
168 160 168 170 0 5 -117 126 -261 270 l-261 260 -88 -87 -88 -88 84 -85 c46
-47 84 -89 84 -94 0 -5 -96 -105 -214 -222 l-214 -214 -45 42 c-25 24 -54 50
-64 58 -101 82 -128 106 -131 113 -2 4 -8 7 -13 7 -8 0 -36 20 -124 88 -5 4
-28 19 -50 32 -22 13 -42 26 -45 29 -7 8 -28 21 -145 88 -55 31 -103 61 -106
66 -3 5 -9 8 -13 8 -3 -1 -53 22 -111 50 l-105 51 15 29 c9 16 13 29 9 29 -4
0 -2 6 4 13 6 6 20 36 32 66 11 30 29 73 39 95 11 23 31 73 46 111 15 39 39
94 52 124 13 30 30 70 37 90 8 20 33 82 56 138 39 94 43 101 63 93 12 -5 64
-27 115 -49 l92 -40 15 29 c8 16 24 55 36 87 12 32 25 63 29 68 25 35 20 45
-35 70 -29 14 -56 25 -58 25 -3 0 -22 8 -43 17 -22 9 -41 17 -44 18 -3 1 -17
7 -32 13 -15 6 -120 50 -235 98 -114 47 -213 88 -220 91 -6 2 -14 -6 -18 -19
-4 -13 -15 -41 -25 -63 -52 -119 -59 -138 -55 -145 2 -4 26 -15 52 -25 26 -10
76 -31 110 -46 l62 -28 -55 -133 c-30 -73 -64 -152 -74 -175 -11 -24 -20 -46
-20 -49 0 -4 -11 -32 -24 -63 -21 -49 -35 -83 -41 -101 -1 -3 -11 -27 -23 -53
-12 -27 -22 -52 -22 -55 0 -4 -9 -24 -20 -45 -11 -20 -21 -40 -21 -44 -3 -20
-32 -83 -38 -83 -4 0 -11 4 -17 8 -8 9 -260 85 -314 96 -14 3 -70 15 -125 27
-55 11 -116 22 -135 24 -19 2 -35 4 -35 5 0 1 -11 3 -25 5 -14 1 -45 5 -70 8
-93 12 -166 20 -210 22 -25 1 -55 3 -67 4 -20 1 -21 6 -21 59 1 33 -2 64 -6
70 -4 7 -3 12 1 12 7 0 9 54 2 86 -1 5 0 14 1 19 1 8 1 100 -1 140 0 6 1 29 3
53 2 23 0 42 -5 42 -4 0 -5 5 -1 12 4 7 7 38 6 70 l-1 58 124 0 125 0 0 125 0
125 -37 1 c-143 2 -695 0 -698 -3 -4 -4 -7 -105 -6 -190 l1 -57 98 0 c164 1
152 4 150 -34 -1 -19 2 -39 6 -45 4 -7 4 -12 -1 -12 -4 0 -8 -22 -8 -50 0 -27
3 -50 7 -50 4 0 4 -8 1 -17 -7 -19 -7 -147 1 -180 2 -13 2 -25 -2 -27 -8 -5
-6 -131 2 -153 3 -7 1 -13 -3 -13 -5 0 -7 -9 -4 -20 3 -13 0 -20 -8 -21 -93
-3 -244 -17 -334 -30 -38 -6 -81 -12 -95 -14 -38 -6 -82 -13 -110 -20 -42 -10
-114 -26 -135 -30 -57 -11 -220 -59 -302 -88 l-42 -14 -16 41 c-9 22 -23 57
-32 76 -23 54 -29 67 -73 175 -23 55 -45 109 -50 120 -27 59 -160 385 -160
392 0 2 3 2 8 1 4 -1 23 6 42 14 61 28 134 60 158 69 13 5 21 12 19 16 -3 5
-21 51 -42 103 -21 52 -43 100 -49 106 -8 9 -34 2 -101 -26z"/>
</g>
</svg>
