<?xml version="1.0" encoding="utf-8"?>
<!-- Generator: Adobe Illustrator 22.1.0, SVG Export Plug-In . SVG Version: 6.00 Build 0)  -->
<svg version="1.1" id="Layer_1" xmlns="http://www.w3.org/2000/svg" xmlns:xlink="http://www.w3.org/1999/xlink" x="0px" y="0px"
	 viewBox="0 0 872.2 867.9" style="enable-background:new 0 0 872.2 867.9;" xml:space="preserve">
<style type="text/css">
	.st0{fill:#D62246;}
	.st1{fill:#1C1F22;}
</style>
<title>Asset 1</title>
<path class="st0" d="M849.1,560.5l-9.6,23.1l-80.4-33.3c11.6-32.8,18.1-67.1,19.3-101.9h62.2v25h25v-75h-25v25h-62.2
	c-1.4-40.7-10.1-80.8-25.6-118.4l80.2-33.2l9.6,23.1l23.1-9.6L837,216l-23.1,9.6l9.6,23.1l-81,33.6c-14.6-29.1-33.3-55.9-55.4-79.7
	l43.5-43.6l17.7,17.7l17.7-17.7l-53-53l-17.7,17.7l17.7,17.7l-43.5,43.5c-28-26.1-60.2-47.3-95.2-62.8l33.1-79.8l23.1,9.6l9.6-23.1
	L570.6,0L561,23.1l23.1,9.6L551,112.8c-33.1-11.8-67.7-18.4-102.8-19.6V30.9h25v-25H399v25h25v62.2c-35.1,1.2-69.7,7.9-102.8,19.6
	L288,32.7l23.1-9.6L301.6,0l-69.3,28.7l9.6,23.1l23.1-9.6l33.1,79.8c-35,15.5-67.2,36.7-95.2,62.8l-43.5-43.5l17.7-17.7L159.3,106
	l-53,53l17.7,17.7l17.6-17.7l43.5,43.5c-22.1,23.8-40.8,50.7-55.4,79.7l-81.1-33.5l9.6-23.1L35.2,216L6.5,285.3l23.1,9.6l9.6-23.1
	l80.2,33.2c-15.5,37.6-24.2,77.7-25.6,118.4H31.5v-25h-25v75h25v-25h62.2c1.2,34.8,7.7,69.1,19.3,101.9l-80.4,33.3l-9.6-23.1
	L0,570.1l28.7,69.3l23.1-9.6l-9.6-23.1l80-33.2c15.2,34.5,35.9,66.3,61.3,94.1l-43.9,43.9L122,693.8l-17.6,17.7l53,53l17.7-17.7
	l-17.7-17.7l43.7-43.7c25.5,24.1,54.6,44.2,86.2,59.5L254,825.7l-23.1-9.6l-9.6,23.1l69.3,28.7l9.6-23.1l-23.2-9.6l33.3-80.3
	c36.3,14.3,74.7,22.3,113.7,23.7v62.3h-25v25h74.2v-25h-25v-62.3c39-1.3,77.4-9.3,113.7-23.7l33.3,80.3l-23.1,9.5l9.6,23.1
	l69.3-28.7l-9.6-23.1l-23.1,9.6l-33.4-80.8c31.6-15.3,60.7-35.4,86.2-59.5l43.7,43.7l-17.7,17.7l17.7,17.7l53-53l-17.7-17.7
	l-17.7,17.7l-43.9-43.9c25.5-27.8,46.2-59.6,61.3-94.1l80,33.2l-9.6,23.1l23.1,9.6l28.7-69.3L849.1,560.5z"/>
<circle class="st1" cx="328.6" cy="295.9" r="68.5"/>
<circle class="st1" cx="319" cy="512" r="78"/>
<ellipse transform="matrix(0.7071 -0.7071 0.7071 0.7071 -280.8702 547.6194)" class="st1" cx="520.6" cy="612.8" rx="56.5" ry="56.5"/>
<circle class="st1" cx="556.8" cy="358.9" r="102.7"/>
</svg>
